<?xml version="1.0" encoding="UTF-8" standalone="no"?>
<!-- Created with Inkscape (http://www.inkscape.org/) -->

<svg
   width="210mm"
   height="297mm"
   viewBox="0 0 210 297"
   version="1.1"
   id="svg1"
   inkscape:version="1.4.4 (dcaf3e7, 2026-05-05)"
   sodipodi:docname="Location.svg"
   xmlns:inkscape="http://www.inkscape.org/namespaces/inkscape"
   xmlns:sodipodi="http://sodipodi.sourceforge.net/DTD/sodipodi-0.dtd"
   xmlns="http://www.w3.org/2000/svg"
   xmlns:svg="http://www.w3.org/2000/svg">
  <sodipodi:namedview
     id="namedview1"
     pagecolor="#ffffff"
     bordercolor="#000000"
     borderopacity="0.25"
     inkscape:showpageshadow="2"
     inkscape:pageopacity="0.0"
     inkscape:pagecheckerboard="0"
     inkscape:deskcolor="#d1d1d1"
     inkscape:document-units="mm"
     inkscape:zoom="1.3772587"
     inkscape:cx="324.9208"
     inkscape:cy="583.40528"
     inkscape:window-width="1920"
     inkscape:window-height="991"
     inkscape:window-x="-9"
     inkscape:window-y="-9"
     inkscape:window-maximized="1"
     inkscape:current-layer="layer1" />
  <defs
     id="defs1">
    <clipPath
       clipPathUnits="userSpaceOnUse"
       id="clipPath4">
      <rect
         style="fill:#000000;stroke-width:0.310073"
         id="rect4"
         width="58.4147"
         height="73.197258"
         x="3.9404345"
         y="129.15613"
         rx="0.11138138"
         transform="matrix(0.81318312,-0.58200792,0.48525621,0.87437201,0,0)" />
    </clipPath>
  </defs>
  <g
     inkscape:label="Layer 1"
     inkscape:groupmode="layer"
     id="layer1">
    <path
       style="fill:#000000"
       d="m 101.12816,166.89172 c -1.479867,-0.53653 -8.022181,-8.93087 -11.850045,-14.81912 -5.001608,-7.69376 -8.655569,-14.5834 -10.273272,-20.94633 -1.106812,-4.35345 -0.663399,-8.61043 1.279739,-12.28612 1.072895,-2.02952 4.564899,-5.61315 6.556081,-6.7281 0.800364,-0.44816 2.543443,-1.19294 3.873509,-1.65505 l 2.418301,-0.84022 1.038655,0.68735 c 2.322667,1.53707 5.899682,2.26854 8.676822,1.77434 0.88051,-0.15669 2.59792,-0.79902 3.8563,-1.4423 l 2.2688,-1.1598 2.4937,0.70025 c 3.23793,0.90922 5.40792,2.09231 7.65699,4.17461 2.32644,2.15392 3.68395,4.19882 4.57285,6.88837 0.96052,2.90623 1.13093,5.1863 0.60911,8.14983 -1.1758,6.67756 -4.67633,14.43371 -10.44176,23.13587 -3.52415,5.31923 -10.06302,13.41746 -11.45936,14.19215 -0.67856,0.37646 -0.70773,0.38044 -1.27642,0.17427 z m 3.75369,-18.1771 c 5.29551,-1.86913 11.38505,-8.18911 14.49119,-15.03955 2.38894,-5.2687 2.16967,-10.48523 -0.61157,-14.54939 -1.20716,-1.76399 -3.47109,-3.79518 -4.52481,-4.05965 -0.45565,-0.11436 -0.96668,0.0642 -1.78055,0.62218 -1.79618,1.2314 -3.69835,2.11208 -6.21952,2.87953 -1.99097,0.60607 -2.83117,0.71226 -5.76989,0.72926 -2.463882,0.0142 -3.997961,-0.11513 -5.40802,-0.45611 -2.054853,-0.49691 -5.933173,-2.00317 -7.061755,-2.74265 -0.647056,-0.42396 -0.677236,-0.40781 -2.240172,1.19938 -6.083351,6.25556 -4.83237,15.38504 3.401876,24.82638 5.275747,6.04915 10.752914,8.34498 15.723221,6.59062 z m -7.193271,-39.47401 c -1.623544,-0.58313 -3.578004,-2.11242 -4.525937,-3.54137 -3.166878,-4.77389 -1.317001,-10.998693 3.996771,-13.449073 2.179681,-1.005133 5.092237,-0.984731 7.338037,0.0514 1.91488,0.883459 3.79292,2.741677 4.65287,4.603755 0.8646,1.872145 0.82355,5.755388 -0.0803,7.598098 -0.83526,1.70285 -2.69132,3.55136 -4.36997,4.3522 -1.73286,0.8267 -5.24476,1.01954 -7.011451,0.38499 z M 150.40003,69.523147 c -149.69751664,-66.2959154 -149.69751664,-66.2959154 0,0 z"
       id="path1"
       sodipodi:nodetypes="sssssscssscssssssssssscscssssssssssssssss"
       clip-path="url(#clipPath4)"
       transform="translate(4.1120748,14.603751)" />
    <path
       style="fill:#000000;stroke-width:0.0996199"
       d="m 104.38393,164.37628 c -2.62346,-0.24037 -5.741775,-1.73507 -8.437442,-4.04432 -1.205984,-1.0331 -3.325375,-3.27616 -4.5323,-4.79677 -6.817709,-8.58961 -8.105055,-16.72106 -3.616257,-22.84186 0.816043,-1.11273 2.655096,-2.98422 2.932503,-2.98422 0.116568,0 0.42827,0.1288 0.692667,0.28623 1.142753,0.68039 4.273712,1.94642 6.216235,2.51359 2.001178,0.58431 2.428204,0.63333 5.901954,0.67771 3.66877,0.0469 4.38954,-0.0233 6.44378,-0.62755 2.39799,-0.70535 4.29525,-1.55767 6.25197,-2.80862 0.63056,-0.40312 1.35018,-0.78798 1.59915,-0.85523 0.41972,-0.11335 0.49185,-0.10288 0.99144,0.14394 1.14339,0.56489 2.99408,2.33602 4.16398,3.985 2.24191,3.15992 2.9337,7.5373 1.85672,11.74858 -1.55139,6.06632 -6.83008,13.3346 -12.43444,17.12108 -2.80183,1.89301 -5.46783,2.7172 -8.02996,2.48244 z"
       id="path2" />
  </g>
</svg>
